<svg width="25" height="24" viewBox="0 0 25 24" fill="none" xmlns="http://www.w3.org/2000/svg">
<circle cx="12.8" cy="12" r="12" fill="#47D7AC"/>
<path d="M18.2228 14.8068L16.5482 13.1322C15.9501 12.5341 14.9333 12.7733 14.6941 13.5508C14.5147 14.0891 13.9166 14.3882 13.3783 14.2685C12.1822 13.9695 10.5673 12.4145 10.2683 11.1585C10.0889 10.6202 10.4477 10.0221 10.986 9.84269C11.7635 9.60346 12.0027 8.58671 11.4046 7.98863L9.73001 6.31399C9.25154 5.89534 8.53384 5.89534 8.11518 6.31399L6.97882 7.45035C5.84246 8.64652 7.09844 11.8164 9.90943 14.6274C12.7204 17.4384 15.8903 18.7542 17.0864 17.558L18.2228 16.4216C18.6415 15.9431 18.6415 15.2254 18.2228 14.8068Z" fill="white"/>
</svg>
