<svg width="18" height="20" viewBox="0 0 18 20" fill="none" xmlns="http://www.w3.org/2000/svg">
<path d="M5.6 5.93749C5.6 6.18873 5.50776 6.4275 5.34689 6.60178C5.18638 6.77566 4.97138 6.87082 4.75 6.87082C4.52862 6.87082 4.31362 6.77566 4.15311 6.60178C3.99224 6.4275 3.9 6.18873 3.9 5.93749C3.9 5.68625 3.99224 5.44748 4.15311 5.2732C4.31362 5.09932 4.52862 5.00416 4.75 5.00416C4.97138 5.00416 5.18638 5.09932 5.34689 5.2732C5.50776 5.44748 5.6 5.68625 5.6 5.93749Z" fill="#0957C3" stroke="#0957C3" stroke-width="0.3"/>
<path d="M7.65 5.9375C7.65 5.75809 7.7159 5.58821 7.82989 5.46472C7.94351 5.34163 8.09492 5.275 8.25 5.275H13.75C13.9051 5.275 14.0565 5.34163 14.1701 5.46472C14.2841 5.58821 14.35 5.75809 14.35 5.9375C14.35 6.11691 14.2841 6.28679 14.1701 6.41028C14.0565 6.53337 13.9051 6.6 13.75 6.6H8.25C8.09492 6.6 7.94351 6.53337 7.82989 6.41028C7.7159 6.28679 7.65 6.11691 7.65 5.9375Z" fill="#0957C3" stroke="#0957C3" stroke-width="0.3"/>
<path d="M7.65 10C7.65 9.82059 7.7159 9.65071 7.82989 9.52722C7.94351 9.40413 8.09492 9.3375 8.25 9.3375H13.75C13.9051 9.3375 14.0565 9.40413 14.1701 9.52722C14.2841 9.65071 14.35 9.82059 14.35 10C14.35 10.1794 14.2841 10.3493 14.1701 10.4728C14.0565 10.5959 13.9051 10.6625 13.75 10.6625H8.25C8.09492 10.6625 7.94351 10.5959 7.82989 10.4728C7.7159 10.3493 7.65 10.1794 7.65 10Z" fill="#0957C3" stroke="#0957C3" stroke-width="0.3"/>
<path d="M7.82989 13.5897C7.94351 13.4666 8.09492 13.4 8.25 13.4H13.75C13.9051 13.4 14.0565 13.4666 14.1701 13.5897C14.2841 13.7132 14.35 13.8831 14.35 14.0625C14.35 14.2419 14.2841 14.4118 14.1701 14.5353C14.0565 14.6584 13.9051 14.725 13.75 14.725H8.25C8.09492 14.725 7.94351 14.6584 7.82989 14.5353C7.7159 14.4118 7.65 14.2419 7.65 14.0625C7.65 13.8831 7.7159 13.7132 7.82989 13.5897Z" fill="#0957C3" stroke="#0957C3" stroke-width="0.3"/>
<path d="M5.34689 10.6643C5.18638 10.8382 4.97138 10.9333 4.75 10.9333C4.52862 10.9333 4.31362 10.8382 4.15311 10.6643C3.99224 10.49 3.9 10.2512 3.9 9.99999C3.9 9.74875 3.99224 9.50998 4.15311 9.3357C4.31362 9.16182 4.52862 9.06666 4.75 9.06666C4.97138 9.06666 5.18638 9.16182 5.34689 9.3357C5.50776 9.50998 5.6 9.74875 5.6 9.99999C5.6 10.2512 5.50776 10.49 5.34689 10.6643Z" fill="#0957C3" stroke="#0957C3" stroke-width="0.3"/>
<path d="M5.6 14.0625C5.6 14.3137 5.50776 14.5525 5.34689 14.7268C5.18638 14.9007 4.97138 14.9958 4.75 14.9958C4.52862 14.9958 4.31362 14.9007 4.15311 14.7268C3.99224 14.5525 3.9 14.3137 3.9 14.0625C3.9 13.8113 3.99224 13.5725 4.15311 13.3982C4.31362 13.2243 4.52862 13.1292 4.75 13.1292C4.97138 13.1292 5.18638 13.2243 5.34689 13.3982C5.50776 13.5725 5.6 13.8113 5.6 14.0625Z" fill="#0957C3" stroke="#0957C3" stroke-width="0.3"/>
<path d="M0.76923 1.06567C1.16415 0.637835 1.6971 0.4 2.25 0.4H15.75C16.3029 0.4 16.8358 0.637835 17.2308 1.06567C17.6261 1.49391 17.85 2.07712 17.85 2.6875V17.3125C17.85 17.9229 17.6261 18.5061 17.2308 18.9343C16.8358 19.3622 16.3029 19.6 15.75 19.6H2.25C1.6971 19.6 1.16415 19.3622 0.76923 18.9343C0.373934 18.5061 0.15 17.9229 0.15 17.3125V2.6875C0.15 2.07712 0.373934 1.49391 0.76923 1.06567ZM1.60945 2.01123C1.44214 2.19249 1.35 2.43593 1.35 2.6875V17.3125C1.35 17.5641 1.44214 17.8075 1.60945 17.9888C1.77713 18.1704 2.00726 18.275 2.25 18.275H15.75C15.9927 18.275 16.2229 18.1704 16.3906 17.9888C16.5579 17.8075 16.65 17.5641 16.65 17.3125V2.6875C16.65 2.43593 16.5579 2.19249 16.3906 2.01123C16.2229 1.82957 15.9927 1.725 15.75 1.725H2.25C2.00725 1.725 1.77713 1.82957 1.60945 2.01123Z" fill="#0957C3" stroke="#0957C3" stroke-width="0.3"/>
</svg>
