<svg width="25" height="24" viewBox="0 0 25 24" fill="none" xmlns="http://www.w3.org/2000/svg">
<circle cx="12.6001" cy="12" r="12" fill="#47D7AC"/>
<g clip-path="url(#clip0_1_157)">
<path d="M18.4771 11.4927C18.3675 9.83502 17.5455 8.28696 16.2441 7.25949C14.9426 6.23202 13.2438 5.80733 11.5999 6.08132C8.66815 6.58821 6.51731 9.30073 6.7228 12.2872C6.8187 13.7257 7.42149 15.0546 8.43526 16.0683C8.17497 16.4519 7.94207 16.6985 7.32559 17.1917C7.20229 17.2876 7.14749 17.4383 7.18859 17.589C7.21599 17.7397 7.32559 17.863 7.46258 17.9041C7.66808 17.9726 7.96947 18 8.31196 18C9.03804 18 9.95592 17.8356 10.6683 17.4657C11.6136 17.7945 12.6274 17.8767 13.6274 17.6986C16.5592 17.178 18.6826 14.4518 18.4771 11.4927ZM9.86002 12.9585C9.32574 12.9585 8.90105 12.5338 8.90105 11.9996C8.90105 11.4653 9.32574 11.0406 9.86002 11.0406C10.3943 11.0406 10.819 11.4653 10.819 11.9996C10.819 12.5338 10.3943 12.9585 9.86002 12.9585ZM12.6 12.9585C12.0657 12.9585 11.641 12.5338 11.641 11.9996C11.641 11.4653 12.0657 11.0406 12.6 11.0406C13.1342 11.0406 13.5589 11.4653 13.5589 11.9996C13.5589 12.5338 13.1342 12.9585 12.6 12.9585ZM15.3399 12.9585C14.8056 12.9585 14.3809 12.5338 14.3809 11.9996C14.3809 11.4653 14.8056 11.0406 15.3399 11.0406C15.8742 11.0406 16.2989 11.4653 16.2989 11.9996C16.2989 12.5338 15.8742 12.9585 15.3399 12.9585Z" fill="white"/>
</g>
<defs>
<clipPath id="clip0_1_157">
<rect width="12" height="12" fill="white" transform="translate(6.6001 6)"/>
</clipPath>
</defs>
</svg>
