<svg width="26" height="22" viewBox="0 0 26 22" fill="none" xmlns="http://www.w3.org/2000/svg">
<mask id="path-1-outside-1_2_2233" maskUnits="userSpaceOnUse" x="0" y="0" width="26" height="22" fill="black">
<rect fill="white" width="26" height="22"/>
<path d="M18.5446 1.00279C17.7192 1.00076 16.9017 1.16249 16.1393 1.47862C15.3768 1.79474 14.6847 2.25898 14.1029 2.84445L12.9167 4.0307L11.7304 2.84445C10.8517 1.96406 9.73135 1.36431 8.51143 1.12118C7.2915 0.878061 6.02686 1.00251 4.87772 1.47875C3.72858 1.955 2.74665 2.76162 2.05634 3.79641C1.36603 4.83121 0.9984 6.04762 1.00002 7.29154C0.996992 8.63101 1.28622 9.95502 1.84754 11.1712C2.40886 12.3874 3.22875 13.4665 4.25002 14.3332L12.5646 21.4561C12.6627 21.54 12.7876 21.5862 12.9167 21.5862C13.0458 21.5862 13.1707 21.54 13.2688 21.4561L21.5834 14.3115C22.6046 13.4448 23.4245 12.3657 23.9858 11.1495C24.5472 9.93335 24.8364 8.60934 24.8334 7.26987C24.8248 5.60663 24.1588 4.01428 22.9806 2.8402C21.8025 1.66613 20.2079 1.00563 18.5446 1.00279ZM4.53169 13.109C4.81671 12.4122 5.30273 11.816 5.92783 11.3963C6.55293 10.9767 7.28881 10.7527 8.04169 10.7528C8.81965 10.7559 9.57718 11.0021 10.2084 11.457C10.2539 12.1696 10.579 12.8353 11.1129 13.3095C10.4474 13.6112 9.86897 14.0763 9.43144 14.6616C8.99391 15.2468 8.71149 15.9332 8.61044 16.657L4.93252 13.4882C4.79169 13.369 4.66711 13.2336 4.53169 13.109ZM5.87502 7.50279C5.87502 7.07426 6.0021 6.65536 6.24017 6.29905C6.47825 5.94275 6.81664 5.66504 7.21254 5.50105C7.60845 5.33706 8.04409 5.29415 8.46439 5.37775C8.88468 5.46135 9.27074 5.66771 9.57376 5.97072C9.87677 6.27374 10.0831 6.6598 10.1667 7.08009C10.2503 7.50038 10.2074 7.93603 10.0434 8.33193C9.87944 8.72784 9.60173 9.06623 9.24543 9.30431C8.88912 9.54238 8.47022 9.66945 8.04169 9.66945C7.46706 9.66945 6.91595 9.44118 6.50963 9.03485C6.1033 8.62852 5.87502 8.07742 5.87502 7.50279ZM11.2917 11.2945C11.2917 10.9731 11.387 10.6589 11.5656 10.3917C11.7441 10.1244 11.9979 9.91614 12.2948 9.79315C12.5918 9.67016 12.9185 9.63798 13.2337 9.70068C13.5489 9.76338 13.8385 9.91815 14.0657 10.1454C14.293 10.3727 14.4478 10.6622 14.5105 10.9774C14.5732 11.2927 14.541 11.6194 14.418 11.9163C14.295 12.2132 14.0867 12.467 13.8195 12.6456C13.5523 12.8242 13.2381 12.9195 12.9167 12.9195C12.4857 12.9195 12.0724 12.7483 11.7676 12.4435C11.4629 12.1388 11.2917 11.7254 11.2917 11.2945ZM15.625 11.2945H16.1234C15.9367 11.3883 15.7558 11.4932 15.5817 11.6086C15.6018 11.5048 15.6163 11.3999 15.625 11.2945ZM20.5 10.2111H19.9584C19.843 10.2123 19.731 10.2502 19.6388 10.3195C19.2657 10.5956 18.8138 10.7447 18.3496 10.7447C17.8854 10.7447 17.4335 10.5956 17.0604 10.3195C16.9593 10.2433 16.8348 10.205 16.7084 10.2111H16.1667V8.58612C16.1667 8.01149 16.395 7.46039 16.8013 7.05406C17.2076 6.64773 17.7587 6.41945 18.3334 6.41945C18.908 6.41945 19.4591 6.64773 19.8654 7.05406C20.2717 7.46039 20.5 8.01149 20.5 8.58612V10.2111ZM12.9167 20.3295L9.66669 17.5453V17.2528C9.66669 16.3908 10.0091 15.5642 10.6186 14.9547C11.2281 14.3452 12.0547 14.0028 12.9167 14.0028C13.7786 14.0028 14.6053 14.3452 15.2148 14.9547C15.8243 15.5642 16.1667 16.3908 16.1667 17.2528V17.5453L12.9167 20.3295ZM17.2067 16.657C17.1176 16.022 16.8887 15.4147 16.5365 14.879C16.1843 14.3432 15.7176 13.8922 15.17 13.5586C15.4932 13.0674 15.9262 12.658 16.4348 12.3629C16.9434 12.0678 17.5137 11.895 18.1006 11.8583C18.6874 11.8215 19.2748 11.9217 19.8163 12.151C20.3577 12.3803 20.8385 12.7324 21.2204 13.1795C21.1175 13.2824 21.0146 13.3907 20.9009 13.4882L17.2067 16.657ZM21.9571 12.3778C21.5619 11.9338 21.0881 11.5665 20.5596 11.2945H21.0417C21.1854 11.2945 21.3231 11.2374 21.4247 11.1358C21.5263 11.0342 21.5834 10.8964 21.5834 10.7528V8.58612C21.5834 7.72417 21.2409 6.89752 20.6315 6.28802C20.022 5.67853 19.1953 5.33612 18.3334 5.33612C17.4714 5.33612 16.6448 5.67853 16.0353 6.28802C15.4258 6.89752 15.0834 7.72417 15.0834 8.58612V9.66945C14.7963 9.28588 14.4127 8.98531 13.9716 8.7984C13.5305 8.61148 13.0477 8.54492 12.5725 8.60549C12.0973 8.66606 11.6466 8.85161 11.2665 9.1432C10.8864 9.43478 10.5904 9.82198 10.4088 10.2653C10.2788 10.1949 10.1434 10.1299 10.0079 10.0703C10.5503 9.65905 10.9499 9.08789 11.1503 8.43739C11.3507 7.7869 11.3419 7.08989 11.1249 6.44472C10.908 5.79954 10.494 5.23876 9.94127 4.84149C9.38856 4.44421 8.72507 4.2305 8.0444 4.2305C7.36373 4.2305 6.70024 4.44421 6.14753 4.84149C5.59483 5.23876 5.1808 5.79954 4.96387 6.44472C4.74694 7.08989 4.73805 7.7869 4.93846 8.43739C5.13887 9.08789 5.53846 9.65905 6.08086 10.0703C5.08394 10.5095 4.26496 11.2732 3.75711 12.237C2.67248 10.8164 2.08443 9.07886 2.08336 7.29154C2.08342 6.26238 2.38855 5.25633 2.9602 4.40053C3.53184 3.54472 4.34434 2.87758 5.29502 2.48339C6.2457 2.08921 7.29189 1.98568 8.3014 2.18588C9.3109 2.38609 10.2384 2.88104 10.9667 3.6082L12.5321 5.17904C12.5825 5.22981 12.6424 5.2701 12.7084 5.2976C12.7744 5.3251 12.8452 5.33926 12.9167 5.33926C12.9882 5.33926 13.059 5.3251 13.125 5.2976C13.191 5.2701 13.2509 5.22981 13.3013 5.17904L14.8667 3.6082C15.595 2.88104 16.5225 2.38609 17.532 2.18588C18.5415 1.98568 19.5877 2.08921 20.5384 2.48339C21.489 2.87758 22.3015 3.54472 22.8732 4.40053C23.4448 5.25633 23.75 6.26238 23.75 7.29154C23.7489 9.14164 23.1164 10.9359 21.9571 12.3778Z"/>
</mask>
<path d="M18.5446 1.00279C17.7192 1.00076 16.9017 1.16249 16.1393 1.47862C15.3768 1.79474 14.6847 2.25898 14.1029 2.84445L12.9167 4.0307L11.7304 2.84445C10.8517 1.96406 9.73135 1.36431 8.51143 1.12118C7.2915 0.878061 6.02686 1.00251 4.87772 1.47875C3.72858 1.955 2.74665 2.76162 2.05634 3.79641C1.36603 4.83121 0.9984 6.04762 1.00002 7.29154C0.996992 8.63101 1.28622 9.95502 1.84754 11.1712C2.40886 12.3874 3.22875 13.4665 4.25002 14.3332L12.5646 21.4561C12.6627 21.54 12.7876 21.5862 12.9167 21.5862C13.0458 21.5862 13.1707 21.54 13.2688 21.4561L21.5834 14.3115C22.6046 13.4448 23.4245 12.3657 23.9858 11.1495C24.5472 9.93335 24.8364 8.60934 24.8334 7.26987C24.8248 5.60663 24.1588 4.01428 22.9806 2.8402C21.8025 1.66613 20.2079 1.00563 18.5446 1.00279ZM4.53169 13.109C4.81671 12.4122 5.30273 11.816 5.92783 11.3963C6.55293 10.9767 7.28881 10.7527 8.04169 10.7528C8.81965 10.7559 9.57718 11.0021 10.2084 11.457C10.2539 12.1696 10.579 12.8353 11.1129 13.3095C10.4474 13.6112 9.86897 14.0763 9.43144 14.6616C8.99391 15.2468 8.71149 15.9332 8.61044 16.657L4.93252 13.4882C4.79169 13.369 4.66711 13.2336 4.53169 13.109ZM5.87502 7.50279C5.87502 7.07426 6.0021 6.65536 6.24017 6.29905C6.47825 5.94275 6.81664 5.66504 7.21254 5.50105C7.60845 5.33706 8.04409 5.29415 8.46439 5.37775C8.88468 5.46135 9.27074 5.66771 9.57376 5.97072C9.87677 6.27374 10.0831 6.6598 10.1667 7.08009C10.2503 7.50038 10.2074 7.93603 10.0434 8.33193C9.87944 8.72784 9.60173 9.06623 9.24543 9.30431C8.88912 9.54238 8.47022 9.66945 8.04169 9.66945C7.46706 9.66945 6.91595 9.44118 6.50963 9.03485C6.1033 8.62852 5.87502 8.07742 5.87502 7.50279ZM11.2917 11.2945C11.2917 10.9731 11.387 10.6589 11.5656 10.3917C11.7441 10.1244 11.9979 9.91614 12.2948 9.79315C12.5918 9.67016 12.9185 9.63798 13.2337 9.70068C13.5489 9.76338 13.8385 9.91815 14.0657 10.1454C14.293 10.3727 14.4478 10.6622 14.5105 10.9774C14.5732 11.2927 14.541 11.6194 14.418 11.9163C14.295 12.2132 14.0867 12.467 13.8195 12.6456C13.5523 12.8242 13.2381 12.9195 12.9167 12.9195C12.4857 12.9195 12.0724 12.7483 11.7676 12.4435C11.4629 12.1388 11.2917 11.7254 11.2917 11.2945ZM15.625 11.2945H16.1234C15.9367 11.3883 15.7558 11.4932 15.5817 11.6086C15.6018 11.5048 15.6163 11.3999 15.625 11.2945ZM20.5 10.2111H19.9584C19.843 10.2123 19.731 10.2502 19.6388 10.3195C19.2657 10.5956 18.8138 10.7447 18.3496 10.7447C17.8854 10.7447 17.4335 10.5956 17.0604 10.3195C16.9593 10.2433 16.8348 10.205 16.7084 10.2111H16.1667V8.58612C16.1667 8.01149 16.395 7.46039 16.8013 7.05406C17.2076 6.64773 17.7587 6.41945 18.3334 6.41945C18.908 6.41945 19.4591 6.64773 19.8654 7.05406C20.2717 7.46039 20.5 8.01149 20.5 8.58612V10.2111ZM12.9167 20.3295L9.66669 17.5453V17.2528C9.66669 16.3908 10.0091 15.5642 10.6186 14.9547C11.2281 14.3452 12.0547 14.0028 12.9167 14.0028C13.7786 14.0028 14.6053 14.3452 15.2148 14.9547C15.8243 15.5642 16.1667 16.3908 16.1667 17.2528V17.5453L12.9167 20.3295ZM17.2067 16.657C17.1176 16.022 16.8887 15.4147 16.5365 14.879C16.1843 14.3432 15.7176 13.8922 15.17 13.5586C15.4932 13.0674 15.9262 12.658 16.4348 12.3629C16.9434 12.0678 17.5137 11.895 18.1006 11.8583C18.6874 11.8215 19.2748 11.9217 19.8163 12.151C20.3577 12.3803 20.8385 12.7324 21.2204 13.1795C21.1175 13.2824 21.0146 13.3907 20.9009 13.4882L17.2067 16.657ZM21.9571 12.3778C21.5619 11.9338 21.0881 11.5665 20.5596 11.2945H21.0417C21.1854 11.2945 21.3231 11.2374 21.4247 11.1358C21.5263 11.0342 21.5834 10.8964 21.5834 10.7528V8.58612C21.5834 7.72417 21.2409 6.89752 20.6315 6.28802C20.022 5.67853 19.1953 5.33612 18.3334 5.33612C17.4714 5.33612 16.6448 5.67853 16.0353 6.28802C15.4258 6.89752 15.0834 7.72417 15.0834 8.58612V9.66945C14.7963 9.28588 14.4127 8.98531 13.9716 8.7984C13.5305 8.61148 13.0477 8.54492 12.5725 8.60549C12.0973 8.66606 11.6466 8.85161 11.2665 9.1432C10.8864 9.43478 10.5904 9.82198 10.4088 10.2653C10.2788 10.1949 10.1434 10.1299 10.0079 10.0703C10.5503 9.65905 10.9499 9.08789 11.1503 8.43739C11.3507 7.7869 11.3419 7.08989 11.1249 6.44472C10.908 5.79954 10.494 5.23876 9.94127 4.84149C9.38856 4.44421 8.72507 4.2305 8.0444 4.2305C7.36373 4.2305 6.70024 4.44421 6.14753 4.84149C5.59483 5.23876 5.1808 5.79954 4.96387 6.44472C4.74694 7.08989 4.73805 7.7869 4.93846 8.43739C5.13887 9.08789 5.53846 9.65905 6.08086 10.0703C5.08394 10.5095 4.26496 11.2732 3.75711 12.237C2.67248 10.8164 2.08443 9.07886 2.08336 7.29154C2.08342 6.26238 2.38855 5.25633 2.9602 4.40053C3.53184 3.54472 4.34434 2.87758 5.29502 2.48339C6.2457 2.08921 7.29189 1.98568 8.3014 2.18588C9.3109 2.38609 10.2384 2.88104 10.9667 3.6082L12.5321 5.17904C12.5825 5.22981 12.6424 5.2701 12.7084 5.2976C12.7744 5.3251 12.8452 5.33926 12.9167 5.33926C12.9882 5.33926 13.059 5.3251 13.125 5.2976C13.191 5.2701 13.2509 5.22981 13.3013 5.17904L14.8667 3.6082C15.595 2.88104 16.5225 2.38609 17.532 2.18588C18.5415 1.98568 19.5877 2.08921 20.5384 2.48339C21.489 2.87758 22.3015 3.54472 22.8732 4.40053C23.4448 5.25633 23.75 6.26238 23.75 7.29154C23.7489 9.14164 23.1164 10.9359 21.9571 12.3778Z" fill="#0957C3"/>
<path d="M18.5446 1.00279C17.7192 1.00076 16.9017 1.16249 16.1393 1.47862C15.3768 1.79474 14.6847 2.25898 14.1029 2.84445L12.9167 4.0307L11.7304 2.84445C10.8517 1.96406 9.73135 1.36431 8.51143 1.12118C7.2915 0.878061 6.02686 1.00251 4.87772 1.47875C3.72858 1.955 2.74665 2.76162 2.05634 3.79641C1.36603 4.83121 0.9984 6.04762 1.00002 7.29154C0.996992 8.63101 1.28622 9.95502 1.84754 11.1712C2.40886 12.3874 3.22875 13.4665 4.25002 14.3332L12.5646 21.4561C12.6627 21.54 12.7876 21.5862 12.9167 21.5862C13.0458 21.5862 13.1707 21.54 13.2688 21.4561L21.5834 14.3115C22.6046 13.4448 23.4245 12.3657 23.9858 11.1495C24.5472 9.93335 24.8364 8.60934 24.8334 7.26987C24.8248 5.60663 24.1588 4.01428 22.9806 2.8402C21.8025 1.66613 20.2079 1.00563 18.5446 1.00279ZM4.53169 13.109C4.81671 12.4122 5.30273 11.816 5.92783 11.3963C6.55293 10.9767 7.28881 10.7527 8.04169 10.7528C8.81965 10.7559 9.57718 11.0021 10.2084 11.457C10.2539 12.1696 10.579 12.8353 11.1129 13.3095C10.4474 13.6112 9.86897 14.0763 9.43144 14.6616C8.99391 15.2468 8.71149 15.9332 8.61044 16.657L4.93252 13.4882C4.79169 13.369 4.66711 13.2336 4.53169 13.109ZM5.87502 7.50279C5.87502 7.07426 6.0021 6.65536 6.24017 6.29905C6.47825 5.94275 6.81664 5.66504 7.21254 5.50105C7.60845 5.33706 8.04409 5.29415 8.46439 5.37775C8.88468 5.46135 9.27074 5.66771 9.57376 5.97072C9.87677 6.27374 10.0831 6.6598 10.1667 7.08009C10.2503 7.50038 10.2074 7.93603 10.0434 8.33193C9.87944 8.72784 9.60173 9.06623 9.24543 9.30431C8.88912 9.54238 8.47022 9.66945 8.04169 9.66945C7.46706 9.66945 6.91595 9.44118 6.50963 9.03485C6.1033 8.62852 5.87502 8.07742 5.87502 7.50279ZM11.2917 11.2945C11.2917 10.9731 11.387 10.6589 11.5656 10.3917C11.7441 10.1244 11.9979 9.91614 12.2948 9.79315C12.5918 9.67016 12.9185 9.63798 13.2337 9.70068C13.5489 9.76338 13.8385 9.91815 14.0657 10.1454C14.293 10.3727 14.4478 10.6622 14.5105 10.9774C14.5732 11.2927 14.541 11.6194 14.418 11.9163C14.295 12.2132 14.0867 12.467 13.8195 12.6456C13.5523 12.8242 13.2381 12.9195 12.9167 12.9195C12.4857 12.9195 12.0724 12.7483 11.7676 12.4435C11.4629 12.1388 11.2917 11.7254 11.2917 11.2945ZM15.625 11.2945H16.1234C15.9367 11.3883 15.7558 11.4932 15.5817 11.6086C15.6018 11.5048 15.6163 11.3999 15.625 11.2945ZM20.5 10.2111H19.9584C19.843 10.2123 19.731 10.2502 19.6388 10.3195C19.2657 10.5956 18.8138 10.7447 18.3496 10.7447C17.8854 10.7447 17.4335 10.5956 17.0604 10.3195C16.9593 10.2433 16.8348 10.205 16.7084 10.2111H16.1667V8.58612C16.1667 8.01149 16.395 7.46039 16.8013 7.05406C17.2076 6.64773 17.7587 6.41945 18.3334 6.41945C18.908 6.41945 19.4591 6.64773 19.8654 7.05406C20.2717 7.46039 20.5 8.01149 20.5 8.58612V10.2111ZM12.9167 20.3295L9.66669 17.5453V17.2528C9.66669 16.3908 10.0091 15.5642 10.6186 14.9547C11.2281 14.3452 12.0547 14.0028 12.9167 14.0028C13.7786 14.0028 14.6053 14.3452 15.2148 14.9547C15.8243 15.5642 16.1667 16.3908 16.1667 17.2528V17.5453L12.9167 20.3295ZM17.2067 16.657C17.1176 16.022 16.8887 15.4147 16.5365 14.879C16.1843 14.3432 15.7176 13.8922 15.17 13.5586C15.4932 13.0674 15.9262 12.658 16.4348 12.3629C16.9434 12.0678 17.5137 11.895 18.1006 11.8583C18.6874 11.8215 19.2748 11.9217 19.8163 12.151C20.3577 12.3803 20.8385 12.7324 21.2204 13.1795C21.1175 13.2824 21.0146 13.3907 20.9009 13.4882L17.2067 16.657ZM21.9571 12.3778C21.5619 11.9338 21.0881 11.5665 20.5596 11.2945H21.0417C21.1854 11.2945 21.3231 11.2374 21.4247 11.1358C21.5263 11.0342 21.5834 10.8964 21.5834 10.7528V8.58612C21.5834 7.72417 21.2409 6.89752 20.6315 6.28802C20.022 5.67853 19.1953 5.33612 18.3334 5.33612C17.4714 5.33612 16.6448 5.67853 16.0353 6.28802C15.4258 6.89752 15.0834 7.72417 15.0834 8.58612V9.66945C14.7963 9.28588 14.4127 8.98531 13.9716 8.7984C13.5305 8.61148 13.0477 8.54492 12.5725 8.60549C12.0973 8.66606 11.6466 8.85161 11.2665 9.1432C10.8864 9.43478 10.5904 9.82198 10.4088 10.2653C10.2788 10.1949 10.1434 10.1299 10.0079 10.0703C10.5503 9.65905 10.9499 9.08789 11.1503 8.43739C11.3507 7.7869 11.3419 7.08989 11.1249 6.44472C10.908 5.79954 10.494 5.23876 9.94127 4.84149C9.38856 4.44421 8.72507 4.2305 8.0444 4.2305C7.36373 4.2305 6.70024 4.44421 6.14753 4.84149C5.59483 5.23876 5.1808 5.79954 4.96387 6.44472C4.74694 7.08989 4.73805 7.7869 4.93846 8.43739C5.13887 9.08789 5.53846 9.65905 6.08086 10.0703C5.08394 10.5095 4.26496 11.2732 3.75711 12.237C2.67248 10.8164 2.08443 9.07886 2.08336 7.29154C2.08342 6.26238 2.38855 5.25633 2.9602 4.40053C3.53184 3.54472 4.34434 2.87758 5.29502 2.48339C6.2457 2.08921 7.29189 1.98568 8.3014 2.18588C9.3109 2.38609 10.2384 2.88104 10.9667 3.6082L12.5321 5.17904C12.5825 5.22981 12.6424 5.2701 12.7084 5.2976C12.7744 5.3251 12.8452 5.33926 12.9167 5.33926C12.9882 5.33926 13.059 5.3251 13.125 5.2976C13.191 5.2701 13.2509 5.22981 13.3013 5.17904L14.8667 3.6082C15.595 2.88104 16.5225 2.38609 17.532 2.18588C18.5415 1.98568 19.5877 2.08921 20.5384 2.48339C21.489 2.87758 22.3015 3.54472 22.8732 4.40053C23.4448 5.25633 23.75 6.26238 23.75 7.29154C23.7489 9.14164 23.1164 10.9359 21.9571 12.3778Z" stroke="#0957C3" stroke-width="0.4" mask="url(#path-1-outside-1_2_2233)"/>
</svg>
