<svg width="20" height="20" viewBox="0 0 20 20" fill="none" xmlns="http://www.w3.org/2000/svg">
<path d="M5.43553 11.4271L6.0199 10.957C5.80409 10.6888 5.43333 10.6019 5.12081 10.7464L5.43553 11.4271ZM14.5644 11.4271L14.8791 10.7464C14.5666 10.6019 14.1959 10.6887 13.9801 10.957L14.5644 11.4271ZM1.75 18.3623C1.75 15.591 3.38711 13.2004 5.75026 12.1079L5.12081 10.7464C2.24667 12.0751 0.25 14.9848 0.25 18.3623H1.75ZM1.76364 18.376C1.76037 18.376 1.75915 18.3755 1.75856 18.3752C1.75747 18.3748 1.75577 18.3738 1.75399 18.372C1.75222 18.3702 1.75122 18.3685 1.75076 18.3674C1.75051 18.3668 1.75 18.3656 1.75 18.3623H0.25C0.25 19.1983 0.927679 19.876 1.76364 19.876V18.376ZM18.2364 18.376H1.76364V19.876H18.2364V18.376ZM18.25 18.3623C18.25 18.3656 18.2495 18.3668 18.2492 18.3674C18.2488 18.3685 18.2478 18.3702 18.246 18.372C18.2442 18.3738 18.2425 18.3748 18.2414 18.3752C18.2409 18.3755 18.2396 18.376 18.2364 18.376V19.876C19.0723 19.876 19.75 19.1983 19.75 18.3623H18.25ZM14.2497 12.1079C16.6129 13.2004 18.25 15.591 18.25 18.3623H19.75C19.75 14.9848 17.7533 12.0751 14.8791 10.7464L14.2497 12.1079ZM13.9801 10.957C12.9643 12.2196 11.545 12.9761 9.99997 12.9761V14.4761C12.0605 14.4761 13.8891 13.4631 15.1488 11.8972L13.9801 10.957ZM9.99997 12.9761C8.45496 12.9761 7.03563 12.2196 6.0199 10.957L4.85116 11.8973C6.11086 13.4631 7.93944 14.4761 9.99997 14.4761V12.9761Z" fill="#0957C3"/>
<path d="M5.84766 5.32611V5.32611C5.84766 7.90692 7.19172 10.5402 9.66946 11.2623C9.80954 11.3031 9.92322 11.3261 10.0015 11.3261C10.0798 11.3261 10.1935 11.3031 10.3336 11.2623C12.8113 10.5402 14.1553 7.90692 14.1553 5.32611V5.32611" stroke="#0957C3" stroke-width="1.5" stroke-linejoin="round"/>
<path d="M6.51217 2.33853C7.83625 0.721793 12.1667 0.721793 13.4907 2.33853C14.3653 3.40642 14.1252 5.92598 14.1252 5.92598L11.2704 4.05814C11.2704 4.05814 10.3188 5.12547 8.41552 5.12547C6.51223 5.12547 5.87788 5.92598 5.87788 5.92598C5.87788 5.92598 5.63758 3.40642 6.51217 2.33853Z" stroke="#0957C3" stroke-width="1.5" stroke-linejoin="round"/>
</svg>
