<svg width="100" height="22" viewBox="0 0 100 22" fill="none" xmlns="http://www.w3.org/2000/svg">
<path d="M40.8222 10.9979C40.8222 16.0609 37.3647 17.6374 32.9826 17.6374H28.562V4.3822H32.9826C37.3695 4.3822 40.8222 5.95397 40.8222 10.9979ZM31.7306 7.0161V15.0083H33.0452C35.3759 15.0083 37.4803 14.513 37.4803 11.0027C37.4803 7.51145 35.3711 7.0161 33.0452 7.0161H31.7306Z" fill="#0957C3"/>
<path d="M41.7131 11.0163C41.7131 6.88211 44.5398 4.15771 48.6667 4.15771C52.7695 4.15771 55.6203 6.88211 55.6203 11.0163C55.6203 15.1506 52.7743 17.875 48.6667 17.875C44.5398 17.875 41.7131 15.1506 41.7131 11.0163ZM52.2687 11.0163C52.2687 8.20144 50.6218 6.73922 48.6619 6.73922C46.702 6.73922 45.0551 8.20144 45.0551 11.0163C45.0551 13.8312 46.702 15.2935 48.6619 15.2935C50.6218 15.2982 52.2687 13.836 52.2687 11.0163Z" fill="#0957C3"/>
<path d="M63.2289 17.8755C59.0491 17.8755 56.5161 15.2416 56.5161 11.0026C56.5161 6.81598 59.1406 4.16302 63.3204 4.16302C66.6864 4.16302 69.0508 6.32063 69.5131 9.33557H66.4071C66.0556 7.52565 64.7073 6.73977 63.2096 6.73977C61.322 6.73977 59.8629 8.29249 59.8629 11.0026C59.8629 13.7984 61.322 15.2988 63.2482 15.2988C64.6158 15.2988 66.1326 14.7129 66.5034 12.703H69.6094C69.1279 15.7703 66.6142 17.8755 63.2289 17.8755Z" fill="#0957C3"/>
<path d="M70.4038 14.3841H73.8421V17.6372H70.4038V14.3841Z" fill="#0957C3"/>
<path d="M78.0554 12.2975C78.0554 14.236 78.5177 15.3125 80.7183 15.3125C82.9383 15.3125 83.3235 14.0693 83.3235 12.1118V4.37677H86.4825V11.8546C86.4825 15.9317 84.8934 17.8702 80.7135 17.8702C76.7022 17.8702 74.8916 16.3365 74.8916 11.9641V4.37677H78.0554V12.2975Z" fill="#0957C3"/>
<path d="M94.9346 4.3822L100 17.6374H96.5622L95.7484 15.2798H90.5717L89.7772 17.6374H86.4111L91.4578 4.3822H94.9346ZM94.9008 12.7364L93.1817 7.68768L91.4433 12.7364H94.9008Z" fill="#0957C3"/>
<path d="M2.63885 3.25247L0.00341797 7.74738L19.2861 18.7107L21.9215 14.2158L2.63885 3.25247Z" fill="#FE5000"/>
<path d="M13.5769 0H8.32324V22H13.5769V0Z" fill="#0957C3"/>
<path d="M0.000597554 14.2459L2.62744 18.746L21.8897 7.74595L19.2628 3.24591L0.000597554 14.2459Z" fill="#47D7AC"/>
</svg>
