<svg width="157" height="24" viewBox="0 0 157 24" fill="none" xmlns="http://www.w3.org/2000/svg">
<path d="M44.2261 11.9974C44.2261 17.5207 40.4954 19.2405 35.7671 19.2405H31.0024V4.78027H35.7671C40.4954 4.78027 44.2261 6.49493 44.2261 11.9974ZM34.411 7.65362V16.3724H35.8294C38.3443 16.3724 40.6149 15.832 40.6149 12.0026C40.6149 8.194 38.3391 7.65362 35.8294 7.65362H34.411Z" fill="#0957C3"/>
<path d="M45.1821 12.0183C45.1821 7.5082 48.2322 4.53613 52.6799 4.53613C57.1068 4.53613 60.1828 7.5082 60.1828 12.0183C60.1828 16.5283 57.112 19.5004 52.6799 19.5004C48.2374 19.5004 45.1821 16.5283 45.1821 12.0183ZM56.5768 12.0183C56.5768 8.94747 54.7998 7.35233 52.6851 7.35233C50.5703 7.35233 48.7933 8.94747 48.7933 12.0183C48.7933 15.0891 50.5703 16.6842 52.6851 16.6842C54.7998 16.6894 56.5768 15.0943 56.5768 12.0183Z" fill="#0957C3"/>
<path d="M68.4028 19.5003C63.8927 19.5003 61.1597 16.627 61.1597 12.0026C61.1597 7.43539 63.9915 4.54126 68.5015 4.54126C72.1335 4.54126 74.6847 6.89501 75.1835 10.184H71.8321C71.4528 8.20958 69.998 7.35226 68.382 7.35226C66.3452 7.35226 64.7708 9.04613 64.7708 12.0026C64.7708 15.0526 66.3452 16.6893 68.4236 16.6893C69.8992 16.6893 71.536 16.0502 71.9361 13.8576H75.2874C74.7678 17.2037 72.0555 19.5003 68.4028 19.5003Z" fill="#0957C3"/>
<path d="M76.1445 15.6919H79.8544V19.2407H76.1445V15.6919Z" fill="#0957C3"/>
<path d="M80.3533 12.0183C80.3533 7.5082 83.4033 4.53613 87.851 4.53613C92.2779 4.53613 95.3539 7.5082 95.3539 12.0183C95.3539 16.5283 92.2831 19.5004 87.851 19.5004C83.4033 19.5004 80.3533 16.5283 80.3533 12.0183ZM91.7428 12.0183C91.7428 8.94747 89.9657 7.35233 87.851 7.35233C85.7362 7.35233 83.9592 8.94747 83.9592 12.0183C83.9592 15.0891 85.7362 16.6842 87.851 16.6842C89.9657 16.6894 91.7428 15.0943 91.7428 12.0183Z" fill="#0957C3"/>
<path d="M100.098 9.26436V19.2405H96.8088V4.78027H100.96L106.764 14.7565V4.78027H110.053V19.2405H105.902L100.098 9.26436Z" fill="#0957C3"/>
<path d="M122.721 16.2269V19.2405H112.365V4.78027H115.774V16.2321H122.721V16.2269Z" fill="#0957C3"/>
<path d="M123.719 19.2405V4.78027H127.127V19.2405H123.719Z" fill="#0957C3"/>
<path d="M132.734 9.26436V19.2405H129.445V4.78027H133.596L139.4 14.7565V4.78027H142.689V19.2405H138.537L132.734 9.26436Z" fill="#0957C3"/>
<path d="M156.094 4.78027V7.77313H148.415V10.3087H155.673V13.3224H148.415V16.2373H156.094V19.2509H145.006V4.79066H156.094V4.78027Z" fill="#0957C3"/>
<path d="M2.83438 3.54982L0 8.45898L20.784 20.459L23.6184 15.5498L2.83438 3.54982Z" fill="#FE5000"/>
<path d="M14.6458 0H8.97705V24H14.6458V0Z" fill="#0957C3"/>
<path d="M0.00467837 15.5489L2.83911 20.458L23.6232 8.4582L20.7888 3.54906L0.00467837 15.5489Z" fill="#47D7AC"/>
</svg>
