<svg width="21" height="20" viewBox="0 0 21 20" fill="none" xmlns="http://www.w3.org/2000/svg">
<path d="M5.37122 5.35896C5.74387 5.02174 6.34836 5.02168 6.72114 5.35891C7.09386 5.69618 7.09392 6.24298 6.72114 6.58026L3.89607 9.13639H15.5916C16.1188 9.13639 16.5461 9.52307 16.5461 10C16.5461 10.477 16.1188 10.8637 15.5916 10.8637H3.89619L6.72114 13.4196C7.09392 13.7568 7.09392 14.3036 6.72114 14.6409C6.53475 14.8096 6.29045 14.8939 6.04615 14.8939C5.80185 14.8939 5.55755 14.8096 5.37122 14.6409L0.916805 10.6107C0.544024 10.2735 0.544024 9.72666 0.916805 9.38938L5.37122 5.35896Z" fill="#707272"/>
<path d="M11.1367 19.5C10.6096 19.5 10.1822 19.1133 10.1822 18.6364C10.1822 18.1594 10.6096 17.7727 11.1367 17.7727H18.4549V2.22727H11.1367C10.6096 2.22727 10.1822 1.84059 10.1822 1.36364C10.1822 0.886679 10.6096 0.5 11.1367 0.5H19.4095C19.9366 0.5 20.364 0.886679 20.364 1.36364V18.6364C20.364 19.1133 19.9366 19.5 19.4095 19.5H11.1367Z" fill="#707272"/>
</svg>
