<svg width="10" height="6" viewBox="0 0 10 6" fill="none" xmlns="http://www.w3.org/2000/svg">
<path d="M4.6098 5.83709L0.159755 1.29221C0.0567475 1.1871 0 1.04677 0 0.897152C0 0.74753 0.0567475 0.607207 0.159755 0.50209L0.487394 0.167391C0.700889 -0.0503999 1.04788 -0.0503999 1.26105 0.167391L4.99793 3.98384L8.73895 0.163156C8.84196 0.0580388 8.97928 0 9.1257 0C9.27228 0 9.4096 0.0580388 9.51269 0.163156L9.84025 0.497855C9.94325 0.603055 10 0.743295 10 0.892917C10 1.04254 9.94325 1.18286 9.84025 1.28798L5.38614 5.83709C5.2828 5.94246 5.14484 6.00033 4.99817 6C4.85094 6.00033 4.71305 5.94246 4.6098 5.83709Z" fill="#333536"/>
</svg>
