<svg width="20" height="22" viewBox="0 0 20 22" fill="none" xmlns="http://www.w3.org/2000/svg">
<path d="M10.5416 11.4497L10.5415 11.4498L10.5429 11.4514L10.543 11.4515L10.5436 11.4523L10.545 11.4541C10.545 11.4541 10.545 11.4541 10.5451 11.4541C11.1523 12.2713 11.4804 13.2575 11.4804 14.2945C11.4804 15.3283 11.1534 16.3112 10.5497 17.127L3.87271 10.45C4.68843 9.84619 5.67139 9.51923 6.70526 9.51923C7.98082 9.51923 9.17982 10.0158 10.0818 10.9179C10.2493 11.0854 10.4027 11.2632 10.5416 11.4497ZM14.9415 0.95C12.4275 0.95 10.3823 2.99521 10.3823 5.50916V9.29498C9.32282 8.51225 8.04678 8.08811 6.70519 8.08811C5.04749 8.08811 3.48878 8.73379 2.31664 9.90592C1.1445 11.0781 0.498828 12.6368 0.498828 14.2945C0.498828 15.9522 1.1445 17.5109 2.31664 18.683C3.48878 19.8552 5.04749 20.5008 6.70519 20.5008C8.31845 20.5008 9.83713 19.8883 10.9978 18.7752C11.7878 20.134 13.2594 21.05 14.9415 21.05C17.4554 21.05 19.5006 19.0048 19.5006 16.4908V5.50916C19.5006 2.99521 17.4554 0.95 14.9415 0.95ZM14.9415 2.38111C16.6662 2.38111 18.0695 3.78438 18.0695 5.50916V10.2845H11.8134V5.50916C11.8134 3.78438 13.2168 2.38111 14.9415 2.38111ZM3.32863 17.6711C2.42656 16.7691 1.92994 15.5701 1.92994 14.2945C1.92994 13.2607 2.25697 12.2777 2.86072 11.4619L9.53775 18.139C8.72202 18.7428 7.73906 19.0698 6.70519 19.0698C5.42963 19.0698 4.23063 18.5732 3.32863 17.6711ZM14.9415 19.6189C13.5852 19.6189 12.4283 18.7508 11.9957 17.541C12.5917 16.5738 12.9116 15.459 12.9116 14.2945C12.9116 13.3899 12.7193 12.5147 12.354 11.7156H18.0695V16.4909C18.0695 18.2156 16.6663 19.6189 14.9415 19.6189Z" fill="#0957C3" stroke="#0957C3" stroke-width="0.1"/>
</svg>
