<svg width="24" height="24" viewBox="0 0 24 24" fill="none" xmlns="http://www.w3.org/2000/svg">
<g clip-path="url(#clip0_2_2224)">
<path d="M21.418 2.85938H2.58197C1.15833 2.85938 0 4.0177 0 5.44135V18.5587C0 19.9823 1.15833 21.1406 2.58197 21.1406H21.418C22.8417 21.1406 24 19.9823 24 18.5587V5.44135C24 4.0177 22.8417 2.85938 21.418 2.85938V2.85938ZM22.5938 18.5587C22.5938 19.2068 22.0662 19.7344 21.418 19.7344H2.58197C1.93378 19.7344 1.40625 19.2068 1.40625 18.5587V5.44135C1.40625 4.79315 1.93378 4.26562 2.58197 4.26562H21.418C22.0662 4.26562 22.5938 4.79315 22.5938 5.44135V18.5587Z" fill="#0957C3"/>
<path d="M12 9.89062H9.87891V7.78125C9.87891 7.39288 9.56415 7.07812 9.17578 7.07812H6.35156C5.9632 7.07812 5.64844 7.39288 5.64844 7.78125V9.89062H3.52734C3.13898 9.89062 2.82422 10.2054 2.82422 10.5938V13.4062C2.82422 13.7946 3.13898 14.1094 3.52734 14.1094H5.64844V16.2188C5.64844 16.6071 5.9632 16.9219 6.35156 16.9219H9.17578C9.56415 16.9219 9.87891 16.6071 9.87891 16.2188V14.1094H12C12.3884 14.1094 12.7031 13.7946 12.7031 13.4062V10.5938C12.7031 10.2054 12.3884 9.89062 12 9.89062ZM11.2969 12.7031H9.17578C8.78741 12.7031 8.47266 13.0179 8.47266 13.4062V15.5156H7.05469V13.4062C7.05469 13.0179 6.73993 12.7031 6.35156 12.7031H4.23047V11.2969H6.35156C6.73993 11.2969 7.05469 10.9821 7.05469 10.5938V8.48438H8.47266V10.5938C8.47266 10.9821 8.78741 11.2969 9.17578 11.2969H11.2969V12.7031Z" fill="#0957C3"/>
<path d="M20.4727 7.07812H14.8242C14.4359 7.07812 14.1211 7.39288 14.1211 7.78125C14.1211 8.16962 14.4359 8.48438 14.8242 8.48438H20.4727C20.861 8.48438 21.1758 8.16962 21.1758 7.78125C21.1758 7.39288 20.861 7.07812 20.4727 7.07812Z" fill="#0957C3"/>
<path d="M20.4727 9.89062H14.8242C14.4359 9.89062 14.1211 10.2054 14.1211 10.5938C14.1211 10.9821 14.4359 11.2969 14.8242 11.2969H20.4727C20.861 11.2969 21.1758 10.9821 21.1758 10.5938C21.1758 10.2054 20.861 9.89062 20.4727 9.89062Z" fill="#0957C3"/>
<path d="M20.4727 12.7031H14.8242C14.4359 12.7031 14.1211 13.0179 14.1211 13.4062C14.1211 13.7946 14.4359 14.1094 14.8242 14.1094H20.4727C20.861 14.1094 21.1758 13.7946 21.1758 13.4062C21.1758 13.0179 20.861 12.7031 20.4727 12.7031Z" fill="#0957C3"/>
<path d="M19.0605 15.5156H14.8242C14.4359 15.5156 14.1211 15.8304 14.1211 16.2188C14.1211 16.6071 14.4359 16.9219 14.8242 16.9219H19.0605C19.4489 16.9219 19.7637 16.6071 19.7637 16.2188C19.7637 15.8304 19.4489 15.5156 19.0605 15.5156Z" fill="#0957C3"/>
</g>
<defs>
<clipPath id="clip0_2_2224">
<rect width="24" height="24" fill="white"/>
</clipPath>
</defs>
</svg>
