<svg width="18" height="21" viewBox="0 0 18 21" fill="none" xmlns="http://www.w3.org/2000/svg">
<path d="M5.66667 8.915C5.46594 8.915 5.27432 8.99877 5.13371 9.1464C4.99324 9.2939 4.915 9.49311 4.915 9.7C4.915 9.90689 4.99324 10.1061 5.13371 10.2536C5.27432 10.4012 5.46594 10.485 5.66667 10.485H12.3333C12.5341 10.485 12.7257 10.4012 12.8663 10.2536C13.0068 10.1061 13.085 9.90689 13.085 9.7C13.085 9.49311 13.0068 9.2939 12.8663 9.1464C12.7257 8.99877 12.5341 8.915 12.3333 8.915H5.66667ZM5.13371 11.9464C4.99324 12.0939 4.915 12.2931 4.915 12.5C4.915 12.7069 4.99324 12.9061 5.13371 13.0536C5.27432 13.2012 5.46594 13.285 5.66667 13.285H12.3333C12.5341 13.285 12.7257 13.2012 12.8663 13.0536C13.0068 12.9061 13.085 12.7069 13.085 12.5C13.085 12.2931 13.0068 12.0939 12.8663 11.9464C12.7257 11.7988 12.5341 11.715 12.3333 11.715H5.66667C5.46594 11.715 5.27432 11.7988 5.13371 11.9464ZM5.13371 14.7464C4.99324 14.8939 4.915 15.0931 4.915 15.3C4.915 15.5069 4.99324 15.7061 5.13371 15.8536C5.27432 16.0012 5.46594 16.085 5.66667 16.085H8.33333C8.53406 16.085 8.72568 16.0012 8.86629 15.8536C9.00676 15.7061 9.085 15.5069 9.085 15.3C9.085 15.0931 9.00676 14.8939 8.86629 14.7464C8.72568 14.5988 8.53406 14.515 8.33333 14.515H5.66667C5.46594 14.515 5.27432 14.5988 5.13371 14.7464Z" fill="#0957C3" stroke="#0957C3" stroke-width="0.17"/>
<path d="M11.0565 0.936525L11.0324 0.915H11H3.66667C2.93985 0.915 2.24111 1.17206 1.72452 1.63215C1.2076 2.09252 0.915 2.71918 0.915 3.375V17.625C0.915 18.2808 1.2076 18.9075 1.72452 19.3679C2.24111 19.8279 2.93985 20.085 3.66667 20.085H14.3333C15.0601 20.085 15.7589 19.8279 16.2755 19.3679C16.7924 18.9075 17.085 18.2808 17.085 17.625V6.34375V6.30563L17.0565 6.28027L11.0565 0.936525ZM10.915 2.2725V4.5625C10.915 5.06085 11.1374 5.53648 11.5293 5.88551C11.9208 6.23425 12.45 6.42875 13 6.42875H15.5817V17.625C15.5817 17.914 15.4528 18.1935 15.2196 18.4012C14.9861 18.6092 14.6674 18.7275 14.3333 18.7275H3.66667C3.33261 18.7275 3.01394 18.6092 2.78039 18.4012C2.54716 18.1935 2.41833 17.914 2.41833 17.625V3.375C2.41833 3.08599 2.54716 2.80651 2.78039 2.59879C3.01394 2.39078 3.33261 2.2725 3.66667 2.2725H10.915Z" fill="#0957C3" stroke="#0957C3" stroke-width="0.17"/>
</svg>
