<svg width="18" height="18" viewBox="0 0 18 18" fill="none" xmlns="http://www.w3.org/2000/svg">
<path d="M16.8959 6.31406H14.9975C14.9588 3.0375 12.2834 0.386719 8.99981 0.386719C5.71621 0.386719 3.04082 3.0375 3.00567 6.31406H1.10723C0.435743 6.3668 0.365431 6.94336 0.400587 7.15078L2.07402 17.0156C2.13379 17.3602 2.43262 17.6133 2.78067 17.6133H15.2189C15.5705 17.6133 15.8693 17.3602 15.9256 17.0156L17.6025 7.15078C17.6377 6.94336 17.5533 6.36328 16.8959 6.31406ZM8.99981 1.82109C11.4924 1.82109 13.5209 3.82852 13.5596 6.31055H4.44004C4.47871 3.82852 6.50723 1.82109 8.99981 1.82109ZM14.6143 16.1789H3.38887L1.95449 7.74844H16.0451L14.6143 16.1789Z" fill="#333536"/>
<path d="M6.0082 10.8879H11.9883C12.3855 10.8879 12.7055 10.568 12.7055 10.1707C12.7055 9.77347 12.3855 9.45355 11.9883 9.45355H6.0082C5.61094 9.45355 5.29102 9.77347 5.29102 10.1707C5.29102 10.568 5.61445 10.8879 6.0082 10.8879Z" fill="#333536"/>
<path d="M6.0082 14.4739H11.9883C12.3855 14.4739 12.7055 14.1539 12.7055 13.7567C12.7055 13.3594 12.3855 13.0395 11.9883 13.0395H6.0082C5.61094 13.0395 5.29102 13.3594 5.29102 13.7567C5.29102 14.1539 5.61445 14.4739 6.0082 14.4739Z" fill="#333536"/>
</svg>
