<svg width="90" height="72" viewBox="0 0 90 72" fill="none" xmlns="http://www.w3.org/2000/svg">
<path d="M53.4983 12.9231C23.5305 25.8365 15.6601 12.9231 4.76288 21.4342C-6.13433 29.9454 1.43312 65.2226 29.8872 70.7401C58.3413 76.2577 79.8061 62.8181 84.677 46.6741C89.548 30.5302 83.4662 0.00962925 53.4983 12.9231Z" fill="#EAFAF5"/>
<path d="M78.9174 9.85349C78.9173 9.85338 78.9172 9.85326 78.9172 9.85315L78.9174 9.85349L78.7056 10.0109L78.9174 9.85349ZM73.1376 7.38737C73.1378 7.38725 73.1379 7.38713 73.1381 7.387L73.1376 7.38737ZM75.4366 1.52175L75.9379 1.56764L75.4366 1.52175C75.4779 0.976615 76.1788 0.781647 76.5164 1.22139L78.4792 3.77826L81.7698 4.00925C82.3354 4.04895 82.5514 4.7672 82.0951 5.09115L79.4408 6.97575L79.2003 10.1455L78.6989 10.0996L79.2003 10.1455C79.1589 10.6906 78.458 10.8856 78.1204 10.4459L76.1576 7.889L72.8671 7.65802C72.3014 7.61831 72.0854 6.90007 72.5417 6.57611L75.196 4.69152L75.4366 1.52175Z" fill="white" stroke="#47D7AC"/>
<path d="M88.1055 20.5153C87.2049 20.7658 86.2349 20.2706 85.9629 19.3665C85.691 18.4624 86.2365 17.5457 87.1371 17.2951C88.0377 17.0446 89.0078 17.5398 89.2797 18.4439C89.5516 19.3481 89.0062 20.2648 88.1055 20.5153Z" fill="white" stroke="#47D7AC"/>
<path d="M32.9458 37.5273L32.9458 40.8" stroke="#47D7AC" stroke-width="2" stroke-linecap="round"/>
<path d="M40.1448 37.5273L40.1448 40.8" stroke="#47D7AC" stroke-width="2" stroke-linecap="round"/>
<path d="M54.4039 15.6886C44.7962 15.6886 36.9106 21.4895 36.3008 28.7964C27.1508 29.1983 18.5461 34.9763 18.5461 42.7913C18.5461 46.0572 20.0219 49.2216 22.7082 51.7289C23.2397 53.6477 22.5944 55.6815 20.9932 57.0837C20.688 57.3509 20.5967 57.7529 20.7618 58.1022C20.9269 58.4512 21.3158 58.679 21.7477 58.679C24.7913 58.679 27.7244 57.6339 29.9038 55.7921C32.027 56.4258 34.7971 56.8099 37.3288 56.8099C46.9352 56.8099 54.8199 51.0104 55.4315 43.705C57.6659 43.6182 59.99 43.2567 61.8288 42.708C64.0082 44.5498 66.9413 45.595 69.9849 45.595C70.4168 45.595 70.8057 45.3672 70.9708 45.0182C71.1359 44.6688 71.0446 44.2669 70.7394 43.9997C69.1382 42.5974 68.4929 40.5636 69.0244 38.6448C71.7108 36.1375 73.1865 32.9731 73.1865 29.7072C73.1865 21.587 63.919 15.6886 54.4039 15.6886ZM37.3288 54.9407C34.81 54.9407 31.9398 54.5078 30.0172 53.8379C29.6054 53.694 29.1347 53.7886 28.835 54.0752C27.5464 55.3087 25.871 56.1688 24.0455 56.5642C25.0514 54.8765 25.3082 52.8869 24.6963 51.0017C24.6479 50.8531 24.5583 50.7173 24.4353 50.6067C22.0141 48.4228 20.6805 45.6472 20.6805 42.7913C20.6805 36.2054 28.3043 30.6418 37.3288 30.6418C45.8505 30.6418 53.3367 35.8312 53.3367 42.7913C53.3367 49.4906 46.1556 54.9407 37.3288 54.9407ZM67.2973 37.5226C67.1743 37.6336 67.0847 37.7694 67.0364 37.9176C66.4244 39.8028 66.6812 41.7924 67.6871 43.4802C65.8616 43.0852 64.1862 42.2247 62.8976 40.9911C62.5979 40.7049 62.1273 40.61 61.7154 40.7538C60.0492 41.3343 57.6721 41.7362 55.4281 41.8333C55.1163 38.2991 53.1032 34.9774 49.6615 32.5109C48.6905 31.8151 48.945 31.9769 48.1134 31.4914C47.2818 31.0059 47.097 30.9602 46.3828 30.6418C43.9604 29.5619 41.2403 28.9322 38.4406 28.8C39.0538 22.523 45.9793 17.5577 54.4039 17.5577C63.4283 17.5577 71.0521 23.1214 71.0521 29.7072C71.0521 32.5632 69.7185 35.3388 67.2973 37.5226Z" fill="#47D7AC"/>
<path d="M27.71 44.0727C27.9031 46.1047 30.0271 50.1267 36.9787 49.9585C43.9303 49.7903 45.4751 45.9646 45.3785 44.0727" stroke="#47D7AC" stroke-width="2" stroke-linecap="round"/>
</svg>
