<svg aria-hidden="true" style="position:absolute;width:0;height:0;overflow:hidden" xmlns="http://www.w3.org/2000/svg"><defs><symbol id="arrow-left" viewBox="0 0 17 32"><path fill="" style="fill:var(--color1, )" d="m.463 16.865 12.928 13.924c.299.322.698.5 1.124.5s.825-.177 1.124-.5l.952-1.025a1.81 1.81 0 0 0 0-2.421L5.735 15.651 16.603 3.946c.299-.322.464-.752.464-1.21s-.165-.888-.464-1.211L15.651.5c-.299-.322-.698-.5-1.124-.5s-.825.178-1.124.5L.463 14.436c-.3.323-.464.755-.463 1.214-.001.461.164.892.463 1.215z"/><path fill="none" stroke="#fff" style="stroke:var(--color2, #fff)" stroke-width="2.133" d="m.463 16.865 12.928 13.924c.299.322.698.5 1.124.5s.825-.177 1.124-.5l.952-1.025a1.81 1.81 0 0 0 0-2.421L5.735 15.651 16.603 3.946c.299-.322.464-.752.464-1.21s-.165-.888-.464-1.211L15.651.5c-.299-.322-.698-.5-1.124-.5s-.825.178-1.124.5L.463 14.436c-.3.323-.464.755-.463 1.214-.001.461.164.892.463 1.215z"/></symbol><symbol id="arrow-right" viewBox="0 0 17 32"><path fill="" style="fill:var(--color3, )" d="M16.603 16.865 3.675 30.789c-.299.322-.698.5-1.124.5s-.825-.177-1.124-.5l-.952-1.025a1.808 1.808 0 0 1 0-2.421l10.856-11.692L.463 3.946c-.299-.322-.464-.752-.464-1.21s.165-.888.464-1.211L1.415.5c.299-.322.698-.5 1.124-.5s.825.178 1.124.5l12.94 13.936c.3.323.464.755.463 1.214.001.461-.164.892-.463 1.215z"/><path fill="none" stroke="#fff" style="stroke:var(--color2, #fff)" stroke-width="2.133" d="M16.603 16.865 3.675 30.789c-.299.322-.698.5-1.124.5s-.825-.177-1.124-.5l-.952-1.025a1.808 1.808 0 0 1 0-2.421l10.856-11.692L.463 3.946c-.299-.322-.464-.752-.464-1.21s.165-.888.464-1.211L1.415.5c.299-.322.698-.5 1.124-.5s.825.178 1.124.5l12.94 13.936c.3.323.464.755.463 1.214.001.461-.164.892-.463 1.215z"/></symbol><symbol id="route" viewBox="0 0 32 32"><path fill="#707272" style="fill:var(--color4, #707272)" d="m28.947 15.053-12-12c-.52-.52-1.36-.52-1.88 0l-12 12c-.52.52-.52 1.36 0 1.88l12 12c.52.52 1.36.52 1.88 0l12-12c.52-.507.52-1.347 0-1.88zm-10.28 4.28V16h-5.333v4h-2.667v-5.333c0-.733.6-1.333 1.333-1.333h6.667v-3.333l4.667 4.667-4.667 4.667z"/></symbol></defs></svg>