<svg width="16" height="16" viewBox="0 0 16 16" fill="none" xmlns="http://www.w3.org/2000/svg">
<path d="M13.9695 8.31674L13.9695 8.31673C14.2091 8.0686 14.2103 7.66753 13.9724 7.41784L13.8638 7.52131L13.9723 7.41778L13.9721 7.41761L13.9715 7.41691L13.9688 7.41412L13.9583 7.4031L13.9174 7.36012L13.7619 7.19699L13.2071 6.61471L11.5231 4.84735L11.436 4.75596C10.244 3.505 9.07014 2.27308 9.06296 2.26635L9.06279 2.26618C8.47199 1.71305 7.57675 1.71102 6.98364 2.26162L6.98361 2.26165C6.97632 2.26842 5.79731 3.49523 4.59747 4.7437L4.50101 4.84407L2.80167 6.61234L2.24181 7.19493L2.08496 7.35814L2.04364 7.40114L2.03305 7.41216L2.03037 7.41495L2.02969 7.41565L2.02952 7.41583L2.13762 7.51982L2.02947 7.41589L2.02945 7.4159C1.79053 7.6646 1.79012 8.06565 2.02861 8.3148L2.02861 8.31481C2.27049 8.56747 2.6657 8.5679 2.90803 8.3157L3.02187 8.19723V12.0449C3.02187 13.1998 3.9243 14.15 5.04687 14.15H10.9531C12.0757 14.15 12.9781 13.1998 12.9781 12.0449C12.9781 11.6981 12.707 11.4061 12.3594 11.4061C12.0118 11.4061 11.7406 11.6981 11.7406 12.0449C11.7406 12.507 11.3814 12.8724 10.9531 12.8724H5.04687C4.61863 12.8724 4.25937 12.507 4.25937 12.0449V6.90936L7.82105 3.2028C7.93815 3.10254 8.10489 3.10291 8.22157 3.20369L11.7406 6.89733V9.60096C11.7406 9.94778 12.0118 10.2397 12.3594 10.2397C12.707 10.2397 12.9781 9.94778 12.9781 9.60096V8.19622L13.0901 8.31377C13.2105 8.44014 13.3704 8.50459 13.5312 8.50459C13.6907 8.50459 13.8494 8.44119 13.9695 8.31674Z" fill="#707272" stroke="#707272" stroke-width="0.3"/>
</svg>
