<svg width="19" height="22" viewBox="0 0 19 22" fill="none" xmlns="http://www.w3.org/2000/svg">
<path d="M9.61313 1.72859H9.56313V1.77859V3.23844V3.28844H9.61313H11.1689V5.98782C11.1689 8.37505 9.22661 10.3174 6.83938 10.3174C4.45215 10.3174 2.50984 8.37508 2.50984 5.98785V3.28844H4.01703H4.06703V3.23844V1.77859V1.72859H4.01703H1.72992C1.29914 1.72859 0.95 2.07774 0.95 2.50852V5.98785C0.95 9.23543 3.59184 11.8773 6.83942 11.8773C10.087 11.8773 12.7288 9.23543 12.7288 5.98785V2.50852C12.7288 2.07774 12.3797 1.72859 11.9489 1.72859H9.61313Z" fill="white" stroke="white" stroke-width="0.1"/>
<path d="M14.7958 12.3855H14.7458V12.4355V15.8905C14.7458 17.8753 13.1309 19.4902 11.1461 19.4902C9.16131 19.4902 7.54647 17.8753 7.54647 15.8905V11.1216V11.0716H7.49647H6.03662H5.98662V11.1216V15.8905C5.98662 18.7354 8.30096 21.05 11.1461 21.05C13.991 21.05 16.3056 18.7354 16.3056 15.8905V12.4355V12.3855H16.2556H14.7958Z" fill="white" stroke="white" stroke-width="0.1"/>
<path d="M18.2764 10.4161V10.4161C18.2764 8.89916 17.0424 7.66533 15.5257 7.66533C14.0085 7.66533 12.7747 8.89916 12.7747 10.4161C12.7747 11.9327 14.0085 13.1668 15.5254 13.1668C17.0424 13.1668 18.2762 11.9327 18.2764 10.4161ZM15.5254 11.607C14.8686 11.607 14.3343 11.0727 14.3343 10.4161C14.3343 9.75955 14.8686 9.22525 15.5254 9.22525C16.182 9.22525 16.7163 9.75955 16.7163 10.4161C16.7163 11.0727 16.182 11.607 15.5254 11.607Z" fill="white" stroke="white" stroke-width="0.1"/>
<path d="M3.99286 0.95C3.56208 0.95 3.21294 1.29914 3.21294 1.72992V3.28711C3.21294 3.71789 3.56208 4.06703 3.99286 4.06703C4.42364 4.06703 4.77278 3.71789 4.77278 3.28711V1.72992C4.77278 1.29914 4.42364 0.95 3.99286 0.95Z" fill="white" stroke="white" stroke-width="0.1"/>
<path d="M9.63763 0.95C9.20686 0.95 8.85771 1.29914 8.85771 1.72992V3.28711C8.85771 3.71789 9.20686 4.06703 9.63763 4.06703C10.0684 4.06703 10.4176 3.71789 10.4176 3.28711V1.72992C10.4176 1.29914 10.0684 0.95 9.63763 0.95Z" fill="white" stroke="white" stroke-width="0.1"/>
</svg>
