<svg width="43" height="43" viewBox="0 0 43 43" fill="none" xmlns="http://www.w3.org/2000/svg">
<g clip-path="url(#clip0_1_133)">
<path d="M21.5 43C33.3545 43 43 33.3554 43 21.5C43 19.4538 42.7144 17.4373 42.1488 15.5061C41.8701 14.5564 40.8785 14.011 39.9263 14.2896C38.9757 14.5674 38.432 15.5625 38.7098 16.5121C39.1783 18.1166 39.4167 19.7954 39.4167 21.5C39.4167 31.3791 31.3791 39.4167 21.5 39.4167C11.6209 39.4167 3.58333 31.3791 3.58333 21.5C3.58333 11.6209 11.6209 3.58333 21.5 3.58333C25.0903 3.58333 28.5446 4.63314 31.4893 6.61858C32.3091 7.17192 33.4236 6.95452 33.9761 6.1348C34.5289 5.3142 34.3133 4.20053 33.4927 3.64763C29.954 1.26152 25.8073 0 21.5 0C9.64552 0 0 9.64464 0 21.5C0 33.3554 9.64552 43 21.5 43Z" fill="#0957C3"/>
<path d="M39.9416 4.10819L21.5 22.5489L15.6001 16.6499C14.9002 15.9504 13.7664 15.9504 13.0666 16.6499C12.3671 17.3497 12.3671 18.4835 13.0666 19.1834L20.2332 26.3501C20.5836 26.7004 21.0411 26.875 21.5 26.875C21.9588 26.875 22.4164 26.7004 22.7668 26.3501L42.4751 6.64172C43.1745 5.94185 43.1745 4.80806 42.4751 4.10819C41.7752 3.40876 40.6414 3.40876 39.9416 4.10819Z" fill="#0957C3"/>
</g>
<defs>
<clipPath id="clip0_1_133">
<rect width="43" height="43" fill="white"/>
</clipPath>
</defs>
</svg>
