<svg width="55" height="55" viewBox="0 0 55 55" fill="none" xmlns="http://www.w3.org/2000/svg">
<path d="M54.8946 7.20988C54.6577 6.52969 54.0661 6.0555 53.3501 5.97269L49.4745 5.52568L49.0271 1.65053C48.9447 0.934494 48.4709 0.342468 47.7903 0.105576C47.1101 -0.131729 46.371 0.0375977 45.8614 0.547226L38.2004 8.20813C37.7963 8.61229 37.6018 9.16971 37.6673 9.73784L38.2214 14.5408L37 16C28.567 8.71648 15.0025 8.99756 7.00004 17C-1.37858 25.3786 -1.37861 39.6214 7 48C15.3786 56.3786 29.6214 56.3786 38 48C46.0025 39.9976 46.2836 26.4326 39 18L40.4594 16.7787L45.2623 17.3328C45.83 17.3983 46.3879 17.2043 46.792 16.7997L54.453 9.13881C54.9626 8.62918 55.1315 7.89007 54.8946 7.20988ZM35.4364 45.4786C28.2917 52.6232 16.6447 52.1447 9.5 45C2.35529 37.8549 2.37678 26.7084 9.52149 19.5633C16.2896 12.7956 27.078 12.4388 34.2701 18.4926L31.3767 21.386C25.7856 16.9118 17.58 17.2644 12.4013 22.4431C6.84439 28 6.84439 37.0419 12.4013 42.5988C17.9582 48.1556 27.0001 48.1556 32.557 42.5988C37.7357 37.4201 38.0884 29.2145 33.6142 23.6235L36.5076 20.7301C42.5613 27.9221 42.2045 38.7104 35.4364 45.4786ZM21.6434 33.3567C22.2614 33.9746 23.2634 33.9746 23.8814 33.3567L25.985 31.2526C26.4571 32.5673 26.1675 34.0962 25.1161 35.1476C23.6651 36.599 21.3035 36.599 19.8525 35.1476C18.4011 33.6965 18.4011 31.3354 19.8525 29.884C20.9035 28.8326 22.4328 28.543 23.747 29.0151L21.6434 31.1192C21.0254 31.7367 21.0254 32.7387 21.6434 33.3567ZM26.1049 26.6573C23.4504 25.0168 19.9147 25.3464 17.6146 27.6465C14.9297 30.3314 14.9297 34.7006 17.6146 37.3855C20.2995 40.0704 24.6687 40.0708 27.3536 37.3855C29.6537 35.0854 29.9833 31.5497 28.3428 28.8952L31.3585 25.8791C34.6087 30.219 34.2626 36.4177 30.3191 40.3613C25.9961 44.6842 18.9618 44.6842 14.6388 40.3613C10.3158 36.0383 10.3158 29.004 14.6388 24.681C18.5819 20.7375 24.7811 20.391 29.1206 23.6416L26.1049 26.6573ZM44.9995 14.1168L41.3093 13.6909L40.8833 10.0007L46.1926 4.69141L46.4604 7.00966C46.5535 7.81674 47.1822 8.44626 47.9905 8.54019L50.3088 8.80757L44.9995 14.1168Z" fill="#0957C3"/>
</svg>
