<svg width="24" height="24" viewBox="0 0 24 24" fill="none" xmlns="http://www.w3.org/2000/svg">
<circle cx="12" cy="12" r="12" fill="#F8F9FB"/>
<path d="M12.7877 8.47479H7.31291C6.59081 8.47479 6 9.0656 6 9.7877V14.2122C6 14.9343 6.59081 15.5251 7.31291 15.5251H12.7877C13.5098 15.5251 14.1007 14.9343 14.1007 14.2122V9.7877C14.1007 9.05247 13.5098 8.47479 12.7877 8.47479Z" fill="#94AAC0"/>
<path d="M17.0284 9.19696C16.9496 9.21009 16.8709 9.24948 16.8052 9.28886L14.7571 10.4705V13.5164L16.8183 14.698C17.1991 14.9212 17.6717 14.7899 17.8949 14.4092C17.9606 14.291 18 14.1598 18 14.0153V9.95845C18 9.47267 17.5404 9.0788 17.0284 9.19696Z" fill="#94AAC0"/>
</svg>
