<svg width="43" height="43" viewBox="0 0 43 43" fill="none" xmlns="http://www.w3.org/2000/svg">
<g clip-path="url(#clip0_1_144)">
<path d="M17.136 40.1938L17.1283 40.2432L17.1359 40.1938C12.4226 39.466 8.09976 37.0686 4.96397 33.443C1.79515 29.7793 0.05 25.0907 0.05 20.2411C0.05 14.8479 2.15004 9.77797 5.96351 5.96449C9.77699 2.15101 14.847 0.0509766 20.2401 0.0509766C25.1542 0.0509766 29.8898 1.83725 33.5747 5.08072C37.2257 8.29427 39.5948 12.7058 40.2458 17.5024C40.3668 18.3942 39.7419 19.2153 38.8501 19.3364C37.9576 19.4574 37.1372 18.8325 37.0161 17.9407C35.8841 9.59981 28.672 3.31033 20.2401 3.31033C10.9044 3.31033 3.30935 10.9054 3.30935 20.2411C3.30935 28.5188 9.46699 35.7117 17.6333 36.9726C18.5228 37.11 19.1325 37.9423 18.9952 38.8319L19.0446 38.8395L18.9952 38.8319C18.8709 39.637 18.1769 40.2131 17.3867 40.2131C17.3039 40.2131 17.2203 40.2068 17.136 40.1938ZM18.596 19.587L18.6104 19.5724V19.5519V7.72748C18.6104 6.82741 19.34 6.09781 20.2401 6.09781C21.1401 6.09781 21.8698 6.82741 21.8698 7.72748V20.2411C21.8698 20.6695 21.7011 21.0807 21.4002 21.3857L15.1854 27.6844C14.8665 28.0075 14.4461 28.1695 14.0252 28.1695C13.6118 28.1695 13.1982 28.0132 12.8807 27.6999C12.24 27.0678 12.233 26.0359 12.8652 25.3952L18.596 19.587ZM31.7932 31.9323L31.8284 31.9674L31.8637 31.9324L38.9065 24.9616C39.5462 24.3284 40.578 24.3337 41.2111 24.9734C41.8443 25.6132 41.839 26.645 41.1993 27.2781L33.8596 34.5429C33.2984 35.0985 32.5628 35.3761 31.8272 35.3761C31.0865 35.3761 30.3463 35.0947 29.784 34.5324L27.3108 32.0592C26.6744 31.4229 26.6744 30.391 27.3108 29.7546C27.9472 29.1181 28.979 29.1181 29.6155 29.7546L31.7932 31.9323ZM41.6157 31.8239C42.5009 31.9872 43.0859 32.8371 42.9226 33.7222C41.9359 39.0695 37.2677 42.9506 31.8225 42.9507C25.5985 42.9507 20.5347 37.887 20.5347 31.6629C20.5347 25.4389 25.5985 20.3751 31.8225 20.3751C32.8548 20.3751 33.8781 20.5148 34.8643 20.7901C35.7311 21.0322 36.2377 21.9312 35.9956 22.798C35.7536 23.6648 34.8547 24.1714 33.9877 23.9293C33.2869 23.7336 32.5583 23.6344 31.8225 23.6344C27.3956 23.6344 23.7941 27.2359 23.7941 31.6628C23.7941 36.0898 27.3956 39.6913 31.8225 39.6913C35.6956 39.6913 39.0159 36.9323 39.7174 33.1308C39.8807 32.2456 40.7306 31.6607 41.6157 31.8239Z" fill="#0957C3" stroke="white" stroke-width="0.1"/>
</g>
<defs>
<clipPath id="clip0_1_144">
<rect width="43" height="43" fill="white"/>
</clipPath>
</defs>
</svg>
